<?xml version="1.0" encoding="UTF-8" standalone="no"?>
<!-- Created with Inkscape (http://www.inkscape.org/) -->

<svg
   width="420"
   height="100"
   viewBox="0 0 111.125 26.458334"
   version="1.1"
   id="svg5"
   sodipodi:docname="logo-full.svg"
   inkscape:version="1.1.2 (08b2f3d93c, 2022-04-05)"
   xmlns:inkscape="http://www.inkscape.org/namespaces/inkscape"
   xmlns:sodipodi="http://sodipodi.sourceforge.net/DTD/sodipodi-0.dtd"
   xmlns="http://www.w3.org/2000/svg"
   xmlns:svg="http://www.w3.org/2000/svg">
  <sodipodi:namedview
     id="namedview962"
     pagecolor="#ffffff"
     bordercolor="#666666"
     borderopacity="1.0"
     inkscape:pageshadow="2"
     inkscape:pageopacity="0.0"
     inkscape:pagecheckerboard="0"
     showgrid="false"
     inkscape:zoom="0.84407895"
     inkscape:cx="-168.82307"
     inkscape:cy="252.93842"
     inkscape:window-width="1846"
     inkscape:window-height="1016"
     inkscape:window-x="0"
     inkscape:window-y="0"
     inkscape:window-maximized="1"
     inkscape:current-layer="svg5" />
  <defs
     id="defs2" />
  <path
     style="fill:#84cc16;stroke-width:0.0274138;fill-opacity:1"
     d="m 3.4899029,16.065852 c 0.3977219,1.619681 -1.2221044,-0.263556 -1.3298289,0.534997 -0.1077246,0.798552 0.057173,1.518401 1.2007293,2.2348 1.1435671,0.716409 2.5819287,0.402633 3.3821387,1.304661 0.8002203,0.902039 -1.8580491,0.843023 -0.7587862,1.726867 1.0992733,0.883845 2.3983711,0.352434 3.6197709,-0.266322 1.2213893,-0.618755 2.9697973,-0.754217 3.7952463,-0.341906 0.82544,0.41232 -0.911643,1.378878 -0.09001,1.601963 0.821637,0.223086 2.208059,0.02097 3.646804,-1.475278 1.438755,-1.496249 2.215787,-2.986903 2.326682,-4.357151 0.110905,-1.370248 -0.47227,-1.461291 -0.921974,-0.329846 -0.449714,1.131444 -1.553401,2.067209 -2.865305,2.240799 -1.311904,0.17358 -2.836025,-1.014758 -3.464779,-1.842715 -0.628765,-0.827946 -1.53444,-2.105452 -1.92061,-1.444112 -0.3019329,1.221504 1.614087,3.124665 0.685243,2.883997 C 9.8663738,18.295938 9.0716967,17.138249 8.2874533,15.446672 7.5032099,13.755095 7.6155969,11.074072 7.0299036,10.564875 6.3857942,10.020181 6.3863433,13.329056 5.8684843,12.679041 5.3506148,12.029026 5.3712956,10.189927 5.7040844,8.9647661 6.0368732,7.7396047 7.3858702,4.636491 5.0925401,5.4552888 2.79921,6.2740865 1.3398567,8.0585613 1.0842894,10.58482 0.828722,13.111079 3.092181,14.446161 3.4899029,16.065852 Z"
     id="path26970" />
  <path
     id="path28048"
     style="fill:#4b5563;fill-opacity:1;stroke:none;stroke-width:0.022339;stroke-opacity:1;-inkscape-stroke:none;stop-color:#000000"
     d="M 21.797658,3.7768082 C 20.276884,4.4622066 18.977662,5.581653 18.052487,6.7329598 17.127311,7.884277 15.535533,9.9873463 14.869893,11.172876 14.204253,12.358406 12.695975,9.3982172 12.216533,7.5157528 11.737091,5.6332883 10.177663,4.5642532 9.0650967,6.0524415 7.9525301,7.5406297 8.856517,9.3811276 9.7583902,11.211222 c 0.9018628,1.830106 1.9739898,3.205389 3.3058598,4.322701 1.33187,1.117322 3.251382,1.929634 3.560495,0.415905 0.309145,-1.513728 2.876723,-5.521353 4.69023,-7.3587519 1.813496,-1.8374102 3.215117,-2.6745103 3.235104,-3.8018622 0.01999,-1.127352 -1.231678,-1.6978041 -2.752421,-1.0124057 z" />
  <path
     d="m 28.943543,19.250355 h -2.846706 v -9.232561 h 2.211967 l 0.326987,1.15407 q 0.615504,-0.634738 1.384884,-1.000194 0.76938,-0.3654552 1.673401,-0.3654552 1.557995,0 2.385078,0.8463182 0.827084,0.846318 0.827084,2.48125 v 6.116572 h -2.846706 v -5.828054 q 0,-0.673208 -0.326987,-1.057898 -0.307752,-0.403924 -0.923256,-0.403924 -0.461628,0 -0.980959,0.269283 -0.500097,0.269283 -0.884787,0.711676 z"
     style="font-size:19.2345px;line-height:1.25;font-family:Mukta;-inkscape-font-specification:Mukta;stroke-width:0.480863;fill:#4b5563;fill-opacity:1"
     id="path18273" />
  <path
     d="m 43.003952,10.017794 h 2.846706 v 9.232561 H 43.754097 L 43.46558,18.250161 h -0.07694 q -0.192345,0.192345 -0.461628,0.403924 -0.269283,0.21158 -0.653974,0.403925 -0.365455,0.17311 -0.846318,0.288517 -0.480862,0.115407 -1.096366,0.115407 -1.500291,0 -2.346609,-0.827083 -0.846318,-0.827084 -0.846318,-2.442782 v -6.174275 h 2.846706 v 5.943461 q 0,0.711677 0.346221,1.057898 0.365455,0.326986 0.923256,0.326986 0.673207,0 1.096366,-0.269283 0.442394,-0.288517 0.653974,-0.596269 z"
     style="font-size:19.2345px;line-height:1.25;font-family:Mukta;-inkscape-font-specification:Mukta;stroke-width:0.480863;fill:#4b5563;fill-opacity:1"
     id="path18275" />
  <path
     d="m 53.832943,14.518668 3.269866,4.731687 h -3.269866 l -0.76938,-1.15407 -1.019428,-1.827278 -0.942491,1.808043 -0.730911,1.173305 h -3.231396 l 3.231396,-4.731687 -3.039051,-4.500874 h 3.173693 l 0.76938,1.192539 0.904021,1.75034 0.846318,-1.75034 0.711677,-1.192539 h 3.115989 z"
     style="font-size:19.2345px;line-height:1.25;font-family:Mukta;-inkscape-font-specification:Mukta;stroke-width:0.480863;fill:#4b5563;fill-opacity:1"
     id="path18277" />
  <path
     d="m 64.084927,12.056651 h -2.365843 v 3.904604 q 0,0.634739 0.269283,0.884787 0.288517,0.250049 0.788614,0.250049 0.38469,0 0.76938,-0.07694 0.38469,-0.07694 0.59627,-0.21158 l 0.423159,1.942685 q -0.326987,0.17311 -1.000194,0.346221 -0.653973,0.153876 -1.404119,0.153876 -1.788808,0 -2.538954,-0.692442 -0.730911,-0.692442 -0.730911,-2.096561 v -4.404701 h -1.442587 v -2.038857 h 1.442587 V 7.2095572 h 2.827472 v 2.8082368 h 2.365843 z"
     style="font-size:19.2345px;line-height:1.25;font-family:Mukta;-inkscape-font-specification:Mukta;stroke-width:0.480863;fill:#4b5563;fill-opacity:1"
     id="path18279" />
  <path
     d="m 70.086065,6.9018052 q 1.269477,0 2.192733,0.269283 0.923256,0.2500485 1.596463,0.615504 l -0.653973,2.1350296 q -0.750145,-0.38469 -1.519525,-0.5962695 -0.750146,-0.230814 -1.442588,-0.230814 -0.884787,0 -1.346415,0.3269865 -0.461628,0.3269865 -0.461628,0.8655522 0,0.615504 0.442394,0.904022 0.442393,0.269283 1.365649,0.577035 l 1.134836,0.365455 q 0.673207,0.230814 1.250242,0.577035 0.577035,0.326987 0.98096,0.769381 0.423159,0.442393 0.653973,1.000194 0.230814,0.5578 0.230814,1.211773 0,0.76938 -0.288518,1.461822 -0.288517,0.673208 -0.884787,1.192539 -0.577035,0.519332 -1.481056,0.827084 -0.884787,0.288517 -2.096561,0.288517 -1.134835,0 -2.173499,-0.230814 -1.019428,-0.250048 -1.884981,-0.692442 l 0.653973,-2.135029 q 0.827084,0.403924 1.615698,0.634738 0.788615,0.230814 1.654168,0.230814 1.019428,0 1.461822,-0.326986 0.461628,-0.346221 0.461628,-0.923256 0,-0.192345 -0.07694,-0.38469 -0.07694,-0.192345 -0.307752,-0.38469 -0.21158,-0.192345 -0.615504,-0.365456 -0.38469,-0.192345 -1.000194,-0.38469 L 68.605008,14.172447 Q 67.9318,13.922398 67.354765,13.614646 66.77773,13.306894 66.354571,12.883735 q -0.403924,-0.423159 -0.634738,-0.98096 -0.230814,-0.5578 -0.230814,-1.32718 0,-0.7886147 0.288517,-1.4618222 0.307752,-0.6732075 0.884787,-1.1540701 0.59627,-0.500097 1.442588,-0.76938 0.865553,-0.2885175 1.981154,-0.2885175 z"
     style="font-size:19.2345px;line-height:1.25;font-family:Mukta;-inkscape-font-specification:Mukta;stroke-width:0.480863;fill:#84cc16;fill-opacity:1"
     id="path18281" />
  <path
     d="m 76.529606,10.825643 q 0.788614,-0.461628 1.769574,-0.730911 1.000194,-0.2885172 2.038857,-0.2885172 1.711871,0 2.750534,0.8270832 1.038663,0.827084 1.038663,2.635127 v 5.98193 h -2.173499 l -0.250048,-0.923256 h -0.07694 q -0.38469,0.500097 -1.077132,0.827083 -0.673208,0.307752 -1.596464,0.307752 -0.788615,0 -1.384884,-0.230814 -0.577035,-0.230814 -0.961725,-0.615504 -0.38469,-0.38469 -0.59627,-0.904021 -0.192345,-0.538566 -0.192345,-1.134836 0,-0.807849 0.346221,-1.384884 0.365456,-0.577035 0.961725,-0.94249 0.615504,-0.365456 1.423353,-0.538566 0.827084,-0.173111 1.75034,-0.173111 h 0.961725 v -0.500097 q 0,-0.519332 -0.365455,-0.788615 -0.365456,-0.288517 -1.038663,-0.288517 -0.577035,0 -1.134836,0.17311 -0.557801,0.173111 -1.231008,0.557801 z m 4.750922,4.44317 -0.634739,0.01924 q -0.538566,0.01923 -0.904021,0.115407 -0.365456,0.09617 -0.59627,0.250048 -0.21158,0.134642 -0.307752,0.346221 -0.09617,0.192345 -0.09617,0.403925 0,0.596269 0.346221,0.827083 0.365456,0.21158 0.827084,0.21158 0.461628,0 0.827084,-0.269283 0.38469,-0.269283 0.538566,-0.59627 z"
     style="font-size:19.2345px;line-height:1.25;font-family:Mukta;-inkscape-font-specification:Mukta;stroke-width:0.480863;fill:#84cc16;fill-opacity:1"
     id="path18283" />
  <path
     d="M 86.454558,19.250355 V 5.4976866 h 2.808237 V 19.250355 Z"
     style="font-size:19.2345px;line-height:1.25;font-family:Mukta;-inkscape-font-specification:Mukta;stroke-width:0.480863;fill:#84cc16;fill-opacity:1"
     id="path18285" />
  <path
     d="m 91.74403,10.825643 q 0.788615,-0.461628 1.769574,-0.730911 1.000194,-0.2885172 2.038857,-0.2885172 1.711871,0 2.750534,0.8270832 1.038663,0.827084 1.038663,2.635127 v 5.98193 h -2.173499 l -0.250048,-0.923256 h -0.07694 q -0.38469,0.500097 -1.077132,0.827083 -0.673208,0.307752 -1.596464,0.307752 -0.788614,0 -1.384884,-0.230814 -0.577035,-0.230814 -0.961725,-0.615504 -0.38469,-0.38469 -0.59627,-0.904021 -0.192345,-0.538566 -0.192345,-1.134836 0,-0.807849 0.346221,-1.384884 0.365456,-0.577035 0.961726,-0.94249 0.615504,-0.365456 1.423353,-0.538566 0.827083,-0.173111 1.750339,-0.173111 h 0.961725 v -0.500097 q 0,-0.519332 -0.365455,-0.788615 -0.365456,-0.288517 -1.038663,-0.288517 -0.577035,0 -1.134836,0.17311 -0.5578,0.173111 -1.231008,0.557801 z m 4.750922,4.44317 -0.634739,0.01924 q -0.538566,0.01923 -0.904021,0.115407 -0.365456,0.09617 -0.59627,0.250048 -0.211579,0.134642 -0.307752,0.346221 -0.09617,0.192345 -0.09617,0.403925 0,0.596269 0.346221,0.827083 0.365455,0.21158 0.827083,0.21158 0.461628,0 0.827084,-0.269283 0.38469,-0.269283 0.538566,-0.59627 z"
     style="font-size:19.2345px;line-height:1.25;font-family:Mukta;-inkscape-font-specification:Mukta;stroke-width:0.480863;fill:#84cc16;fill-opacity:1"
     id="path18287" />
  <path
     d="m 107.30472,5.4976866 h 2.84671 V 19.250355 h -1.96192 l -0.28852,-1.000194 h -0.0962 q -0.26928,0.423159 -0.94249,0.827083 -0.65397,0.38469 -1.73111,0.38469 -0.90402,0 -1.6734,-0.326986 -0.76938,-0.346221 -1.32718,-0.961725 -0.5578,-0.634739 -0.88479,-1.519526 -0.30775,-0.904021 -0.30775,-2.019622 0,-1.096367 0.28852,-1.981154 0.28852,-0.904022 0.82708,-1.519526 0.5578,-0.634738 1.36565,-0.980959 0.80785,-0.3462212 1.82728,-0.3462212 0.63474,0 1.19254,0.192345 0.57703,0.1731102 0.86555,0.4423932 z m 0,7.0205924 q -0.17311,-0.230814 -0.53856,-0.442393 -0.36546,-0.21158 -0.80785,-0.21158 -0.4424,0 -0.82709,0.153876 -0.38469,0.134642 -0.69244,0.461628 -0.28852,0.326987 -0.46163,0.846318 -0.17311,0.500098 -0.17311,1.250243 0,1.442588 0.5578,2.13503 0.57704,0.673207 1.48106,0.673207 0.5578,0 0.92326,-0.288517 0.38469,-0.288518 0.53856,-0.615504 z"
     style="font-size:19.2345px;line-height:1.25;font-family:Mukta;-inkscape-font-specification:Mukta;stroke-width:0.480863;fill:#84cc16;fill-opacity:1"
     id="path18289" />
</svg>
