<?xml version="1.0" encoding="UTF-8" standalone="no"?>
<!-- Generator: Adobe Illustrator 15.0.0, SVG Export Plug-In . SVG Version: 6.00 Build 0)  -->

<svg
   version="1.0"
   id="Warstwa_2"
   x="0px"
   y="0px"
   width="420"
   height="420"
   viewBox="0 0 420 420"
   enable-background="new 0 0 1920 2000"
   xml:space="preserve"
   sodipodi:docname="welcome.svg"
   inkscape:version="1.1.2 (08b2f3d93c, 2022-04-05)"
   xmlns:inkscape="http://www.inkscape.org/namespaces/inkscape"
   xmlns:sodipodi="http://sodipodi.sourceforge.net/DTD/sodipodi-0.dtd"
   xmlns="http://www.w3.org/2000/svg"
   xmlns:svg="http://www.w3.org/2000/svg"><sodipodi:namedview
   id="namedview1146"
   pagecolor="#ffffff"
   bordercolor="#666666"
   borderopacity="1.0"
   inkscape:pageshadow="2"
   inkscape:pageopacity="0.0"
   inkscape:pagecheckerboard="0"
   showgrid="false"
   inkscape:zoom="0.32198613"
   inkscape:cx="-76.090235"
   inkscape:cy="672.38922"
   inkscape:window-width="1846"
   inkscape:window-height="1016"
   inkscape:window-x="0"
   inkscape:window-y="0"
   inkscape:window-maximized="1"
   inkscape:current-layer="Warstwa_2" /><defs
   id="defs1436">
	
	
	
	
	

		
		
		
		
		
		
		
		
		
		
		
	
	
	
	
	
	
	
	
	
	
	
	
	
	
	
	
	
	
	
</defs>



<path
   fill="none"
   stroke="#84cc16"
   stroke-width="2.70257"
   d="M 147.20852,346.06432"
   id="path1331"
   style="stroke-linejoin:round;stroke-linecap:round" /><g
   id="g1335"
   transform="matrix(1.3512852,0,0,1.3512852,-1273.803,-1148.2882)"
   style="stroke-linejoin:round;stroke-linecap:round">
		<path
   fill="none"
   stroke="#84cc16"
   stroke-width="2"
   d="m 952.929,1041.226 c 0,0 2.225,12.006 6.753,12.455 4.526,0.451 6.049,6.979 0.747,7.363 -5.304,0.385 5.686,3.124 8.813,4.999 3.127,1.871 2.699,6.341 -1.596,7.036 -4.308,0.697 -2.942,1.614 1.105,2.262 2.026,0.323 4.457,1.095 6.415,2.018 0.652,0.309 1.253,0.636 1.777,0.964 5.333,4.626 -1.475,5.348 -3.403,7.619 1.192,0.792 2.595,1.471 3.927,2.157 2.771,1.437 5.084,2.629 3.993,6.21 -0.034,0.152 -0.071,0.299 -0.11,0.44 -1.69,6.292 -10.118,3.337 -11.891,-3.604 -3.294,1.788 -2.977,9.693 -9.271,5.82 -2.689,-3.028 -2.631,-6.327 -2.593,-8.789 -0.123,-0.87 -0.193,-1.739 -0.21,-2.564 -0.016,-0.823 0.021,-1.607 0.11,-2.315 0.53,-4.249 0.073,-5.804 -2.405,-2.25 -2.472,3.544 -8.059,0.722 -8.04,-3.045 0.016,-3.765 5.62,-15.365 1.641,-10.823 -3.98,4.539 -7.042,-1.646 -3.354,-6.302 3.688,-4.654 4.317,-17.963 4.317,-17.963 0,0 1.299,-3.93 3.275,-1.688 z"
   id="path1333"
   style="stroke-linejoin:round;stroke-linecap:round" />
	</g><g
   id="g1339"
   transform="matrix(1.3512852,0,0,1.3512852,-1273.803,-1148.2882)"
   style="stroke-linejoin:round;stroke-linecap:round">
		<path
   fill="none"
   stroke="#84cc16"
   stroke-width="2"
   d="m 1090.225,1110.557 c 0,0 -8.13,7.73 -10.71,5.647 -2.579,-2.085 -6.53,0.323 -4.488,3.541 2.042,3.22 -4.424,-2.034 -7.683,-3.333 -3.255,-1.299 -6.588,2.06 -5.472,5.464 1.12,3.414 -0.257,3.181 -2.237,0.773 -1.982,-2.407 -5.4,-6.279 -7.074,-4.941 -2.876,2.303 -2.383,5.606 -1.893,6.766 2.102,4.973 -9.656,-2.763 -11.065,0.633 -0.306,0.733 -0.819,1.424 -0.563,3.118 0.56,3.7 14.097,0.688 9.547,4.686 -1.06,0.93 -3.539,3.621 -1.107,5.778 1.415,1.256 7.979,-2.015 11,-4.79 3.021,-2.771 4.528,-3.559 2.743,0 -1.781,3.548 3.447,5.334 7.677,2.637 4.232,-2.701 8.58,-12.402 7.493,-7.801 -1.085,4.602 6.244,1.366 6.904,-3.045 0.662,-4.408 8.41,-13.652 8.41,-13.652 0,0 1.307,-2.97 -1.482,-1.482 z"
   id="path1337"
   style="stroke-linejoin:round;stroke-linecap:round" />
	</g><g
   id="g1345"
   transform="matrix(1.3512852,0,0,1.3512852,-1273.803,-1148.2882)"
   style="stroke-linejoin:round;stroke-linecap:round">
		<path
   fill="none"
   stroke="#84cc16"
   stroke-width="2"
   d="m 1172.664,903.845 c 0,0 13.174,-1.765 9.36,-13.709 -2.415,-7.561 21.716,-20.751 28.931,-11.176 0,0 10.608,14.408 -11.604,27.125 -13.376,7.659 -7.202,-5.398 -24.833,0.738 z"
   id="path1341"
   style="stroke-linejoin:round;stroke-linecap:round" />
		<path
   fill="none"
   stroke="#84cc16"
   stroke-width="2"
   d="m 1173.889,905.812 c 0,0 22.884,-5.963 30.554,-22.013"
   id="path1343"
   style="stroke-linejoin:round;stroke-linecap:round" />
	</g><g
   id="g1351"
   transform="matrix(1.3512852,0,0,1.3512852,-1273.803,-1148.2882)"
   style="stroke-linejoin:round;stroke-linecap:round">
		<path
   fill="none"
   stroke="#84cc16"
   stroke-width="2"
   d="m 1050.022,900.868 c 0,0 -6.352,-8.829 -14.542,-6.233 -7.565,2.397 -26.529,-8.437 -22.941,-24.47 0,0 17.288,-10.264 27.427,1.349 10.139,11.611 -3.922,13.948 10.552,25.738 z"
   id="path1347"
   style="stroke-linejoin:round;stroke-linecap:round" />
		<path
   fill="none"
   stroke="#84cc16"
   stroke-width="2"
   d="m 1050.14,900.016 c 0,0 -14.768,-22.646 -30.86,-27.432"
   id="path1349"
   style="stroke-linejoin:round;stroke-linecap:round" />
	</g><g
   id="g1361"
   transform="matrix(1.3512852,0,0,1.3512852,-1273.803,-1148.2882)"
   style="stroke-linejoin:round;stroke-linecap:round">
		<path
   fill="none"
   stroke="#84cc16"
   stroke-width="2"
   d="m 967.477,966.934 c 0,0 -40.754,14.443 -1.049,58.598 0,0 -5.488,-17.773 5.59,-33.446 11.078,-15.677 -4.541,-25.152 -4.541,-25.152 z"
   id="path1353"
   style="stroke-linejoin:round;stroke-linecap:round" />
		<path
   fill="none"
   stroke="#84cc16"
   stroke-width="2"
   d="m 967.477,966.934 c 0,0 -16.779,19.546 -7.74,38.123"
   id="path1355"
   style="stroke-linejoin:round;stroke-linecap:round" />
		<path
   fill="none"
   stroke="#84cc16"
   stroke-width="2"
   d="m 958.197,984.898 c 0,0 3.641,3.593 4.091,8.172"
   id="path1357"
   style="stroke-linejoin:round;stroke-linecap:round" />
		<path
   fill="none"
   stroke="#84cc16"
   stroke-width="2"
   d="m 962.079,975.138 c 0,0 2.851,5.046 4.313,10.86"
   id="path1359"
   style="stroke-linejoin:round;stroke-linecap:round" />
	</g><g
   id="g1371"
   transform="matrix(1.3512852,0,0,1.3512852,-1273.803,-1148.2882)"
   style="stroke-linecap:round;stroke-linejoin:round">
		<path
   fill="none"
   stroke="#84cc16"
   stroke-width="2"
   d="m 1138.71,1108.41 c 0,0 50.53,-7.317 22.12,44.824 0,0 -6.314,-6.617 -20.72,-19.305 -14.403,-12.687 -1.4,-25.519 -1.4,-25.519 z"
   id="path1363"
   style="stroke-linecap:round;stroke-linejoin:round" />
		<path
   fill="none"
   stroke="#84cc16"
   stroke-width="2"
   d="m 1139.2389,1108.8645 c 0,0 23.2321,11.1065 19.4461,30.5515"
   id="path1365"
   style="stroke-linecap:round;stroke-linejoin:round"
   sodipodi:nodetypes="cc" />
		<path
   fill="none"
   stroke="#84cc16"
   stroke-width="2"
   d="m 1147.293,1114.104 c 0,0 2,4.515 -1.767,10.795"
   id="path1367"
   style="stroke-linecap:round;stroke-linejoin:round" />
		<path
   fill="none"
   stroke="#84cc16"
   stroke-width="2"
   d="m 1151.537,1118.079 c 0,0 5.544,-0.885 10.049,2.981"
   id="path1369"
   style="stroke-linecap:round;stroke-linejoin:round" />
	</g><path
   fill="none"
   stroke="#b91c1c"
   stroke-width="2.70257"
   d="m 195.90748,31.589175 c 0,0 4.17412,-4.583559 13.89122,-2.653924 9.45224,1.875584 23.15292,32.726776 -12.57506,36.441459 0,0 -13.14801,3.430913 -22.29621,-9.717092 -9.14685,-13.148005 5.00246,-30.725523 24.43799,-22.866448"
   id="path1373"
   style="stroke-linejoin:round;stroke-linecap:round" /><g
   id="g1389"
   transform="matrix(1.3512852,0,0,1.3512852,-1273.803,-1148.2882)"
   style="stroke-linejoin:round;stroke-linecap:round">
		<path
   fill="none"
   stroke="#63a80e"
   stroke-width="2"
   d="m 1000.721,1112.487 c 0,0 -19.293,28.405 -5.896,37.382 5.775,3.869 21.037,2.813 26.932,-11.657"
   id="path1375"
   style="stroke-linejoin:round;stroke-linecap:round" />
		<path
   fill="none"
   stroke="#63a80e"
   stroke-width="2"
   d="m 1017.825,1117.697 c 3.957,6.686 7.127,18.524 2.859,21.052 -4.266,2.525 -14.354,-5.222 -18.31,-11.908 -3.957,-6.688 -3.706,-14.155 0.561,-16.68 4.268,-2.524 10.934,0.849 14.89,7.536 z"
   id="path1377"
   style="stroke-linejoin:round;stroke-linecap:round" />
		<path
   id="line1379"
   style="fill:none;stroke:#63a80e;stroke-width:2;stroke-linejoin:round;stroke-linecap:round"
   d="m 1005.009,1114.4969 4.555,6.6991" />
		<path
   id="line1381"
   style="fill:none;stroke:#63a80e;stroke-width:2;stroke-linejoin:round;stroke-linecap:round"
   d="m 1012.243,1122.938 1.34,-5.359" />
		<path
   id="line1383"
   style="fill:none;stroke:#63a80e;stroke-width:2;stroke-linejoin:round;stroke-linecap:round"
   d="m 1013.986,1125.751 5.225,3.352" />
		<path
   id="line1385"
   style="fill:none;stroke:#63a80e;stroke-width:2;stroke-linejoin:round;stroke-linecap:round"
   d="m 1011.573,1127.896 2.815,6.029" />
		<path
   id="line1387"
   style="fill:none;stroke:#63a80e;stroke-width:2;stroke-linejoin:round;stroke-linecap:round"
   d="m 1004.607,1123.474 5.09,2.144" />
	</g><path
   fill="none"
   stroke="#d8c90e"
   stroke-width="2.70257"
   d="m 49.78761,109.14484 c -2.472852,20.77601 -16.164074,20.6098 -21.828661,20.09631 -5.66729,-0.51214 -10.858928,-3.34983 -14.212818,-7.43207 -3.359295,-4.08358 -4.856519,-9.35359 -4.3430307,-14.21011 0.5134884,-4.85652 3.0147177,-9.238739 6.5267077,-12.023738 3.51199,-2.784999 8.044201,-4.505185 12.089949,-3.990345 4.04845,0.513488 8.987397,2.063412 11.200803,5.002457 2.212053,2.939046 3.043094,6.599676 2.528254,9.838706 -0.513488,3.23768 -3.770086,7.18614 -6.137537,8.8266 -2.367452,1.64046 -5.224069,2.13908 -7.652328,1.62424 -2.42826,-0.51484 -4.398434,-2.01476 -5.465949,-3.80927 -1.070218,-1.79451 -1.236426,-3.84711 -0.718884,-5.46595 0.51484,-1.61884 1.685053,-2.785 2.906615,-3.27957 1.222913,-0.49322 2.470149,-0.32836 3.279569,0.18783 0.810771,0.51484 1.171564,1.34858 1.095892,1.99855 -0.07837,0.64997 -0.579701,1.09319 -1.095892,1.09319"
   id="path1391"
   style="stroke-linejoin:round;stroke-linecap:round" /><path
   fill="none"
   stroke="#54a338"
   stroke-width="2.70257"
   d="m 220.49952,408.3964 c -9.13063,-3.44442 -15.22898,-9.69817 -11.45754,-19.69363 3.62685,-9.61304 12.47776,-10.66704 21.6111,-7.22397 9.13199,3.44578 16.32488,14.94522 15.25871,18.93421 -2.05125,7.67395 -16.28028,11.42782 -25.41227,7.98339 z"
   id="path1393"
   style="stroke-linejoin:round;stroke-linecap:round" /><path
   fill="none"
   stroke="#84573b"
   stroke-width="2.70257"
   d="m 397.08818,341.0524 c -3.49983,8.18609 -7.02669,14.53037 -15.99246,10.69813 -8.6212,-3.68766 -9.22928,-11.79672 -5.73081,-19.98686 3.50254,-8.18744 13.77771,-11.23729 17.37213,-10.10761 6.91587,2.17151 7.85096,11.2062 4.35114,19.39634 z"
   id="path1395"
   style="stroke-linejoin:round;stroke-linecap:round" /><g
   id="g1399"
   transform="matrix(1.3512852,0,0,1.3512852,-1273.803,-1148.2882)">
		<path
   fill="none"
   stroke="#84cc16"
   stroke-width="2"
   d="m 1142.678,857.696 c 0,0 2.39,9.633 -1.354,10.257 -3.744,0.625 -3.923,4.583 0.598,4.931 4.521,0.347 -5.824,2.81 -8.459,4.965 -9.297,7.609 -2.074,3.987 2.028,5.059 4.112,1.073 2.988,1.879 -0.688,1.926 -3.675,0.048 -13.509,5.65 -10.979,5.978 4.346,0.565 5.496,0.764 6.966,1.054 6.298,1.248 -9.718,11.958 -7.872,12.693 4.039,1.604 13.878,-11.98 14.889,-6.763 0.234,1.213 0.082,1.642 1.6,4.326 0.877,1.554 6.6,-6.95 5.811,-10.477 -0.791,-3.526 -0.592,-4.966 1.779,-1.854 2.363,3.106 6.725,5.371 5.004,-3.792 -0.785,-4.185 -4.131,-12.42 -0.271,-9.22 3.86,3.2 5.411,-3.482 1.462,-6.294 -3.943,-2.811 -8.081,-12.999 -8.081,-12.999 0,0 -2.096,-2.473 -2.433,0.21 z"
   id="path1397" />
	</g><path
   fill="none"
   stroke="#d3d363"
   stroke-width="2.70257"
   d="m 331.88461,368.6997 c 0,0 -4.11466,-6.87264 -1.77424,-11.87645 3.15525,-6.75507 16.4519,-12.72505 30.1742,-1.25804 13.298,11.11026 12.64533,24.16098 6.96993,28.98506 -2.98904,2.54177 -8.29013,3.11201 -12.52236,2.49042 0,0 4.60788,-10.26706 -1.09995,-10.02383 -5.77809,0.24864 -8.33202,4.32006 -9.56709,10.89541 0,0 -7.30911,3.79306 -10.52652,-5.59432 0,0 7.32532,-8.51985 7.5672,-12.94261 0.27972,-5.12813 -3.49577,-5.64567 -9.22117,-0.67564 z"
   id="path1401"
   style="stroke-linejoin:round;stroke-linecap:round" /><g
   id="g1415"
   transform="matrix(1.3512852,0,0,1.3512852,-1273.803,-1148.2882)"
   style="stroke-linejoin:round;stroke-linecap:round">
		<path
   fill="none"
   stroke="#dd8731"
   stroke-width="2"
   d="m 1235.17,960.116 c -10.043,5.025 -7.278,-6.724 -12.303,-16.767 -5.025,-10.042 -15.938,-14.577 -5.894,-19.602 10.043,-5.025 22.258,-0.957 27.282,9.085 5.025,10.044 0.958,22.259 -9.085,27.284 z"
   id="path1403"
   style="stroke-linejoin:round;stroke-linecap:round" />
		<path
   id="circle1405"
   style="fill:none;stroke:#dd8731;stroke-width:2;stroke-linejoin:round;stroke-linecap:round"
   d="m 1241.598,944.46198 a 2.3329999,2.3329999 0 0 1 -2.333,2.333 2.3329999,2.3329999 0 0 1 -2.333,-2.333 2.3329999,2.3329999 0 0 1 2.333,-2.333 2.3329999,2.3329999 0 0 1 2.333,2.333 z" />
		<path
   id="circle1407"
   style="fill:none;stroke:#dd8731;stroke-width:2;stroke-linejoin:round;stroke-linecap:round"
   d="m 1232.649,929.55798 a 2.3329999,2.3329999 0 0 1 -2.333,2.333 2.3329999,2.3329999 0 0 1 -2.333,-2.333 2.3329999,2.3329999 0 0 1 2.333,-2.333 2.3329999,2.3329999 0 0 1 2.333,2.333 z" />
		<path
   id="circle1409"
   style="fill:none;stroke:#dd8731;stroke-width:2;stroke-linejoin:round;stroke-linecap:round"
   d="m 1235.562,952.14099 a 2.3329999,2.3329999 0 0 1 -2.333,2.333 2.3329999,2.3329999 0 0 1 -2.333,-2.333 2.3329999,2.3329999 0 0 1 2.333,-2.333 2.3329999,2.3329999 0 0 1 2.333,2.333 z" />
		<path
   id="circle1411"
   style="fill:none;stroke:#dd8731;stroke-width:2;stroke-linejoin:round;stroke-linecap:round"
   d="m 1223.482,929.85797 a 2.3329999,2.3329999 0 0 1 -2.333,2.333 2.3329999,2.3329999 0 0 1 -2.333,-2.333 2.3329999,2.3329999 0 0 1 2.333,-2.333 2.3329999,2.3329999 0 0 1 2.333,2.333 z" />
		<path
   id="circle1413"
   style="fill:none;stroke:#dd8731;stroke-width:2;stroke-linejoin:round;stroke-linecap:round"
   d="m 1240.329,935.966 a 2.3329999,2.3329999 0 0 1 -2.333,2.333 2.3329999,2.3329999 0 0 1 -2.333,-2.333 2.3329999,2.3329999 0 0 1 2.333,-2.333 2.3329999,2.3329999 0 0 1 2.333,2.333 z" />
	</g><g
   id="g1425"
   transform="matrix(1.3512852,0,0,1.3512852,-1273.803,-1148.2882)"
   style="stroke-linejoin:round;stroke-linecap:round">
		<path
   fill="none"
   stroke="#84cc16"
   stroke-width="2"
   d="m 1227.999,1021.582 c 0,0 -32.456,-37.38 11.476,-48.647 0,0 5.95,-0.073 9.21,19.15 2.565,15.132 -20.686,29.497 -20.686,29.497 z"
   id="path1417"
   style="stroke-linejoin:round;stroke-linecap:round" />
		<path
   fill="none"
   stroke="#84cc16"
   stroke-width="2"
   d="m 1227.999,1021.582 c 0,0 -2.819,-24.586 8.823,-40.261"
   id="path1419"
   style="stroke-linejoin:round;stroke-linecap:round" />
		<path
   fill="none"
   stroke="#84cc16"
   stroke-width="2"
   d="m 1227.982,1007.736 c 0,0 4.894,-7.915 11.795,-10.36"
   id="path1421"
   style="stroke-linejoin:round;stroke-linecap:round" />
		<path
   fill="none"
   stroke="#84cc16"
   stroke-width="2"
   d="m 1227.94,1005.432 c 0,0 -3.192,-10.262 -4.204,-16.111"
   id="path1423"
   style="stroke-linejoin:round;stroke-linecap:round" />
	</g><path
   fill="none"
   stroke="#d8c90e"
   stroke-width="2.70257"
   d="m 417.8804,308.18239 c 0,0 4.86057,-22.82726 -9.91032,-20.28819 -14.7682,2.53771 -6.10781,13.12908 -1.6202,8.22932 4.48627,-4.8957 10.30355,-26.60951 -3.39037,-25.50956 -13.68987,1.09995 -17.76129,9.23063 -9.03469,9.20495 8.732,-0.0311 12.09535,-24.64744 -0.63916,-21.503"
   id="path1427"
   style="stroke-linejoin:round;stroke-linecap:round" /><path
   fill="none"
   stroke="#84cc16"
   stroke-width="2.70257"
   d="m 74.805304,73.38848 c -8.500935,2.644465 -15.619506,4.072774 -18.51531,-5.237581 -2.783647,-8.953616 2.997151,-14.674958 11.499437,-17.322125 8.503638,-2.643114 17.489685,3.201194 18.959883,6.669943 2.830942,6.673998 -3.440372,13.243947 -11.94401,15.889763 z"
   id="path1429"
   style="stroke-linejoin:round;stroke-linecap:round" /><g
   id="g1237"
   transform="matrix(1.3512852,0,0,1.3512852,-1272.9985,-1143.4613)">
		<path
   fill="#4b5564"
   d="m 1011.982,983.172 c 2.545,0 4.743,0.26 6.595,0.781 1.852,0.521 3.451,1.147 4.802,1.88 l -1.967,6.421 c -1.505,-0.771 -3.019,-1.378 -4.541,-1.822 -1.524,-0.443 -2.979,-0.665 -4.368,-0.665 -1.774,0 -3.124,0.328 -4.049,0.983 -0.926,0.656 -1.389,1.524 -1.389,2.604 0,1.234 0.442,2.131 1.33,2.689 0.887,0.56 2.257,1.148 4.107,1.765 l 3.413,1.099 c 1.35,0.463 2.604,1.032 3.76,1.707 1.157,0.675 2.15,1.456 2.979,2.343 0.829,0.888 1.476,1.89 1.938,3.008 0.463,1.119 0.693,2.334 0.693,3.645 0,1.543 -0.289,2.999 -0.867,4.368 -0.578,1.369 -1.456,2.574 -2.632,3.615 -1.177,1.041 -2.661,1.861 -4.455,2.458 -1.793,0.598 -3.904,0.897 -6.334,0.897 -2.276,0 -4.445,-0.242 -6.508,-0.724 -2.063,-0.481 -3.963,-1.166 -5.698,-2.054 l 1.967,-6.421 c 1.658,0.81 3.277,1.446 4.859,1.909 1.581,0.463 3.239,0.694 4.975,0.694 2.044,0 3.52,-0.338 4.426,-1.013 0.905,-0.674 1.359,-1.591 1.359,-2.748 0,-0.385 -0.078,-0.771 -0.231,-1.156 -0.154,-0.386 -0.454,-0.771 -0.896,-1.157 -0.444,-0.386 -1.062,-0.762 -1.852,-1.128 -0.791,-0.366 -1.803,-0.742 -3.037,-1.128 l -2.834,-0.983 c -1.351,-0.501 -2.604,-1.061 -3.761,-1.678 -1.156,-0.617 -2.15,-1.35 -2.979,-2.198 -0.83,-0.849 -1.476,-1.832 -1.938,-2.95 -0.462,-1.118 -0.694,-2.449 -0.694,-3.992 0,-1.581 0.299,-3.046 0.897,-4.396 0.597,-1.35 1.483,-2.517 2.661,-3.5 1.176,-0.983 2.622,-1.754 4.338,-2.314 1.718,-0.559 3.694,-0.839 5.931,-0.839 z"
   id="path1225" />
		<path
   fill="#4b5564"
   d="m 1041.37,983.866 h 9.371 l 13.132,36.444 h -9.313 l -2.487,-7.81 h -12.264 l -2.488,7.81 h -9.197 z m 0.347,22.272 h 8.33 l -1.388,-4.396 c -0.463,-1.427 -0.936,-2.95 -1.418,-4.57 -0.482,-1.619 -0.896,-3.104 -1.243,-4.454 h -0.116 c -0.386,1.351 -0.829,2.815 -1.33,4.396 -0.502,1.582 -0.983,3.124 -1.446,4.628 z"
   id="path1227" />
		<path
   fill="#4b5564"
   d="m 1068.732,983.866 h 8.793 v 29.618 h 14.404 v 6.826 h -23.197 z"
   id="path1229" />
		<path
   fill="#4b5564"
   d="m 1106.39,983.866 h 9.371 l 13.132,36.444 h -9.313 l -2.487,-7.81 h -12.264 l -2.488,7.81 h -9.197 z m 0.346,22.272 h 8.33 l -1.388,-4.396 c -0.463,-1.427 -0.936,-2.95 -1.418,-4.57 -0.482,-1.619 -0.896,-3.104 -1.243,-4.454 h -0.116 c -0.386,1.351 -0.829,2.815 -1.33,4.396 -0.502,1.582 -0.983,3.124 -1.446,4.628 z"
   id="path1231" />
		<path
   fill="#4b5564"
   d="m 1146.768,983.866 c 2.893,0 5.515,0.367 7.867,1.099 2.352,0.733 4.367,1.832 6.045,3.297 1.678,1.466 2.97,3.288 3.876,5.467 0.906,2.179 1.359,4.715 1.359,7.606 0,3.24 -0.54,6.046 -1.619,8.417 -1.08,2.372 -2.556,4.339 -4.426,5.9 -1.871,1.563 -4.06,2.729 -6.565,3.5 -2.508,0.772 -5.169,1.157 -7.983,1.157 h -11.569 v -36.444 h 13.015 z m -4.223,29.735 h 2.256 c 1.542,0 3.037,-0.193 4.483,-0.579 1.446,-0.385 2.709,-1.05 3.789,-1.995 1.079,-0.945 1.946,-2.208 2.603,-3.789 0.655,-1.581 0.983,-3.548 0.983,-5.901 0,-3.509 -0.983,-6.18 -2.95,-8.012 -1.967,-1.831 -4.628,-2.748 -7.982,-2.748 h -3.182 z"
   id="path1233" />
		<path
   fill="#4b5564"
   d="m 1184.137,983.172 c 2.545,0 4.743,0.26 6.595,0.781 1.852,0.521 3.451,1.147 4.802,1.88 l -1.967,6.421 c -1.505,-0.771 -3.019,-1.378 -4.541,-1.822 -1.524,-0.443 -2.979,-0.665 -4.368,-0.665 -1.774,0 -3.124,0.328 -4.049,0.983 -0.926,0.656 -1.389,1.524 -1.389,2.604 0,1.234 0.442,2.131 1.33,2.689 0.887,0.56 2.257,1.148 4.107,1.765 l 3.413,1.099 c 1.35,0.463 2.604,1.032 3.76,1.707 1.157,0.675 2.15,1.456 2.979,2.343 0.829,0.888 1.476,1.89 1.938,3.008 0.463,1.119 0.693,2.334 0.693,3.645 0,1.543 -0.289,2.999 -0.867,4.368 -0.578,1.369 -1.456,2.574 -2.632,3.615 -1.177,1.041 -2.661,1.861 -4.455,2.458 -1.793,0.598 -3.904,0.897 -6.334,0.897 -2.276,0 -4.445,-0.242 -6.508,-0.724 -2.063,-0.481 -3.963,-1.166 -5.698,-2.054 l 1.967,-6.421 c 1.658,0.81 3.277,1.446 4.859,1.909 1.581,0.463 3.239,0.694 4.975,0.694 2.044,0 3.52,-0.338 4.426,-1.013 0.905,-0.674 1.359,-1.591 1.359,-2.748 0,-0.385 -0.078,-0.771 -0.231,-1.156 -0.154,-0.386 -0.454,-0.771 -0.896,-1.157 -0.444,-0.386 -1.062,-0.762 -1.852,-1.128 -0.791,-0.366 -1.803,-0.742 -3.037,-1.128 l -2.834,-0.983 c -1.351,-0.501 -2.604,-1.061 -3.761,-1.678 -1.156,-0.617 -2.15,-1.35 -2.979,-2.198 -0.83,-0.849 -1.476,-1.832 -1.938,-2.95 -0.462,-1.118 -0.694,-2.449 -0.694,-3.992 0,-1.581 0.299,-3.046 0.897,-4.396 0.597,-1.35 1.483,-2.517 2.661,-3.5 1.176,-0.983 2.622,-1.754 4.338,-2.314 1.717,-0.559 3.693,-0.839 5.931,-0.839 z"
   id="path1235" />
	</g><path
   fill="#4b5564"
   d="m 83.019286,145.29761 c 1.756671,0 3.312,0.17297 4.665988,0.51754 1.352636,0.34593 2.562037,0.79186 3.628201,1.33913 l -1.337773,4.40654 c -1.181023,-0.57565 -2.318805,-1.01482 -3.411995,-1.3175 -1.095892,-0.30269 -2.160705,-0.45404 -3.197141,-0.45404 -1.381013,0 -2.453934,0.27431 -3.21741,0.82023 -0.763476,0.54727 -1.14589,1.28237 -1.14589,2.2026 0,0.9513 0.331065,1.67019 0.993195,2.1607 0.66213,0.49052 1.726943,0.96482 3.19579,1.42561 l 2.591765,0.82023 c 2.160705,0.72023 3.852514,1.74316 5.076778,3.06742 1.222913,1.32426 1.835045,2.95256 1.835045,4.88084 0,1.15265 -0.216205,2.23232 -0.647265,3.23903 -0.43106,1.00941 -1.079677,1.88639 -1.943148,2.63501 -0.863472,0.74861 -1.943148,1.33912 -3.239031,1.77153 -1.295882,0.43241 -2.807971,0.64727 -4.534913,0.64727 -3.255246,0 -6.23483,-0.66213 -8.941454,-1.98639 l 1.337772,-4.40654 c 1.239129,0.60402 2.448529,1.07292 3.629552,1.40398 1.181023,0.33107 2.418801,0.49592 3.714683,0.49592 1.526952,0 2.678247,-0.28106 3.456588,-0.84185 0.77834,-0.56078 1.166159,-1.34588 1.166159,-2.35394 0,-0.34593 -0.06486,-0.68375 -0.194585,-1.01481 -0.131075,-0.33107 -0.36755,-0.64727 -0.713479,-0.94995 -0.344578,-0.30269 -0.813474,-0.60538 -1.402634,-0.90672 -0.591863,-0.30268 -1.362095,-0.59727 -2.312049,-0.88509 l -2.289077,-0.77699 c -1.008059,-0.34593 -1.929635,-0.74861 -2.764729,-1.21075 -0.835095,-0.45944 -1.548573,-0.99319 -2.137734,-1.59857 -0.590511,-0.60402 -1.0513,-1.3175 -1.381013,-2.13908 -0.332416,-0.82023 -0.497273,-1.77694 -0.497273,-2.87149 0,-1.18102 0.216206,-2.26745 0.647265,-3.262 0.43106,-0.99454 1.072921,-1.84991 1.922879,-2.57014 0.848607,-0.72024 1.899907,-1.28102 3.152549,-1.68505 1.249939,-0.39999 2.682301,-0.60268 4.294384,-0.60268 z"
   id="path1239"
   style="stroke-width:1.35129" /><path
   fill="#4b5564"
   d="m 110.79495,168.8843 c 1.32426,0 2.44853,-0.11486 3.36876,-0.34593 0.92157,-0.22972 1.71343,-0.54727 2.37691,-0.95131 l 1.2094,4.32006 c -0.69186,0.40403 -1.67019,0.76348 -2.9377,1.07968 -1.2675,0.3162 -2.80662,0.47565 -4.62139,0.47565 -2.04585,0 -3.93089,-0.32431 -5.65918,-0.97157 -1.7283,-0.64727 -3.21876,-1.58371 -4.47141,-2.80798 -1.253989,-1.22426 -2.224212,-2.70662 -2.91607,-4.44978 -0.691858,-1.7418 -1.037787,-3.70792 -1.037787,-5.89565 0,-2.13098 0.339173,-4.06062 1.016167,-5.78891 0.675642,-1.72829 1.625596,-3.2039 2.84986,-4.42681 1.22291,-1.22427 2.71473,-2.16746 4.4714,-2.82959 1.75667,-0.66213 3.71469,-0.9932 5.87539,-0.9932 1.8418,0 3.362,0.17297 4.55653,0.51755 1.19589,0.34592 2.16747,0.72023 2.91608,1.12426 l -1.33913,4.3633 c -0.74996,-0.40268 -1.57695,-0.7405 -2.48366,-1.01481 -0.90671,-0.27296 -1.92288,-0.41079 -3.04579,-0.41079 -1.18103,0 -2.28908,0.17296 -3.32552,0.51889 -1.03778,0.34593 -1.94315,0.90131 -2.72284,1.66343 -0.77699,0.76348 -1.38912,1.74316 -1.83504,2.93635 -0.44593,1.19588 -0.66889,2.64311 -0.66889,4.34168 0,1.64181 0.21486,3.06066 0.64727,4.25519 0.43106,1.19454 1.02968,2.18098 1.7918,2.95797 0.76213,0.77834 1.65668,1.36074 2.67825,1.74991 1.02292,0.38647 2.12557,0.58241 3.30659,0.58241 z"
   id="path1241"
   style="stroke-width:1.35129" /><path
   fill="#4b5564"
   d="m 121.98359,145.77326 h 10.32382 c 1.52696,0 2.87284,0.22432 4.039,0.67024 1.16615,0.44728 2.13773,1.0513 2.91472,1.81343 0.77834,0.76347 1.36074,1.65667 1.74991,2.67824 0.38917,1.02293 0.58376,2.12422 0.58376,3.30525 0,1.09454 -0.16621,2.06611 -0.49592,2.91607 -0.33242,0.84996 -0.74997,1.58371 -1.254,2.2026 -0.50403,0.61888 -1.06481,1.13778 -1.6837,1.55532 -0.62024,0.41755 -1.21751,0.75537 -1.79315,1.01482 l 6.65237,11.05892 h -6.7821 l -5.22677,-10.02248 h -3.15255 v 10.02248 h -5.87539 z m 5.87539,12.65614 h 2.33232 c 1.55533,0 2.82959,-0.3162 3.82279,-0.94995 0.99319,-0.63375 1.49046,-1.68505 1.49046,-3.15255 0,-1.29588 -0.39592,-2.29583 -1.18778,-3.00256 -0.79185,-0.70537 -1.9499,-1.05805 -3.47685,-1.05805 h -2.97959 v 8.16311 z"
   id="path1243"
   style="stroke-width:1.35129" /><path
   fill="#4b5564"
   d="m 145.9135,145.77326 h 5.91863 v 16.28434 c 0,2.24719 0.45268,3.95251 1.36075,5.12002 0.90671,1.16616 2.3107,1.74856 4.2106,1.74856 1.87288,0 3.22552,-0.59051 4.06197,-1.77153 0.83374,-1.18102 1.25264,-2.70662 1.25264,-4.57951 v -16.80323 h 5.91728 v 16.37082 c 0,3.80117 -0.9432,6.63887 -2.8296,8.5104 -1.88639,1.87153 -4.68625,2.80797 -8.40229,2.80797 -3.57144,0 -6.37806,-0.93509 -8.42256,-2.80797 -2.04449,-1.87153 -3.06742,-4.78085 -3.06742,-8.7266 z"
   id="path1245"
   style="stroke-width:1.35129" /><path
   fill="#4b5564"
   d="m 176.28094,145.77326 h 7.4726 l 3.88765,12.39669 c 0.17297,0.54728 0.35269,1.13779 0.53916,1.77154 0.18648,0.63375 0.36755,1.26751 0.53917,1.89991 0.17296,0.63375 0.33106,1.25264 0.477,1.85801 0.14189,0.60538 0.2581,1.16616 0.34458,1.68506 h 0.17296 c 0.0865,-0.46079 0.20134,-0.99995 0.34593,-1.62019 0.14324,-0.61889 0.30269,-1.2594 0.47565,-1.92153 0.17297,-0.66213 0.34593,-1.3094 0.5189,-1.94315 0.17296,-0.6324 0.33106,-1.2094 0.47565,-1.72829 l 3.75792,-12.39669 h 7.47261 l 2.03098,27.21353 h -5.5727 c -0.17296,-2.99445 -0.34593,-5.99025 -0.51889,-8.9847 -0.17297,-2.99445 -0.28782,-6.01862 -0.34593,-9.07117 l -0.0432,-3.54172 h -0.12972 c -0.37431,1.5837 -0.7851,3.23903 -1.23102,4.96732 -0.44593,1.72694 -0.87158,3.23903 -1.27292,4.53491 l -3.84575,12.09536 h -4.57816 l -3.93089,-12.1386 c -0.49051,-1.55397 -0.94995,-3.19579 -1.38236,-4.92408 -0.43106,-1.72829 -0.77699,-3.23903 -1.03644,-4.53491 h -0.13107 c 0,1.03643 -0.0149,2.12422 -0.0419,3.262 -0.0284,1.13778 -0.0649,2.26746 -0.1081,3.39037 -0.0433,1.12292 -0.0865,2.22422 -0.12973,3.3039 -0.0432,1.07967 -0.0932,2.06746 -0.15134,2.95931 l -0.51889,8.68201 h -5.48622 z"
   id="path1247"
   style="stroke-width:1.35129" /><path
   fill="#4b5564"
   d="m 210.53467,145.77326 h 9.54547 c 1.58371,0 3.01607,0.18783 4.29844,0.56214 1.28102,0.3743 2.37556,0.92158 3.28363,1.64181 0.90671,0.72024 1.60532,1.59181 2.09449,2.61339 0.48916,1.02157 0.7351,2.19583 0.7351,3.52009 0,1.55533 -0.28918,2.89446 -0.86483,4.01737 -0.57699,1.12292 -1.36074,2.05261 -2.35393,2.78635 -0.9932,0.73375 -2.1526,1.28102 -3.47686,1.64047 -1.32426,0.36079 -2.735,0.54051 -4.23358,0.54051 h -3.11066 v 9.89141 h -5.91727 z m 5.91727,12.78586 h 2.4188 c 0.74997,0 1.46209,-0.0649 2.13909,-0.19458 0.67564,-0.12972 1.2675,-0.35944 1.77153,-0.69186 0.50268,-0.33106 0.89996,-0.76212 1.18778,-1.29588 0.28783,-0.53241 0.43106,-1.20129 0.43106,-2.00801 0,-1.41074 -0.47565,-2.44718 -1.4256,-3.11066 -0.94996,-0.66213 -2.16071,-0.99319 -3.62956,-0.99319 h -2.89445 v 8.29418 z"
   id="path1249"
   style="stroke-width:1.35129" /><path
   fill="#4b5564"
   d="m 253.29879,145.77326 v 4.66599 h -7.68746 v 22.5489 h -5.91863 v -22.5489 h -7.5172 v -4.66599 z"
   id="path1251"
   style="stroke-width:1.35129" /><path
   fill="#4b5564"
   d="m 262.58617,145.77326 v 27.21354 h -5.91728 v -27.21354 z"
   id="path1253"
   style="stroke-width:1.35129" /><path
   fill="#4b5564"
   d="m 280.90149,145.29761 c 1.92964,0 3.71468,0.31755 5.3565,0.94996 1.64181,0.63375 3.05255,1.54857 4.23357,2.7431 1.17967,1.19589 2.10936,2.6715 2.78635,4.42817 0.677,1.75667 1.01617,3.75792 1.01617,6.00376 0,2.18908 -0.34593,4.14709 -1.03779,5.87538 -0.69186,1.72695 -1.64181,3.19579 -2.85121,4.40519 -1.2094,1.21076 -2.64176,2.13909 -4.29844,2.78635 -1.65667,0.64727 -3.44848,0.97158 -5.37676,0.97158 -1.92829,0 -3.71469,-0.30945 -5.3565,-0.92833 -1.64181,-0.61889 -3.05255,-1.52561 -4.23357,-2.72149 -1.18103,-1.19454 -2.11071,-2.66339 -2.78635,-4.40654 -0.677,-1.74181 -1.01617,-3.73631 -1.01617,-5.98214 0,-2.18773 0.34593,-4.15385 1.03779,-5.89701 0.69185,-1.74181 1.64181,-3.22417 2.84986,-4.44843 1.21075,-1.22292 2.64176,-2.15936 4.29844,-2.80797 1.65667,-0.64862 3.44848,-0.97158 5.37811,-0.97158 z m -7.30099,14.12634 c 0,1.61343 0.19458,3.01607 0.58375,4.21195 0.38782,1.19589 0.91347,2.18909 1.57695,2.98094 0.66078,0.79185 1.43236,1.38236 2.3107,1.77153 0.87698,0.38917 1.82153,0.58241 2.82959,0.58241 0.97968,0 1.90666,-0.19459 2.78635,-0.58241 0.87834,-0.38917 1.63506,-0.97968 2.26881,-1.77153 0.63375,-0.79185 1.13778,-1.78505 1.51209,-2.98094 0.37295,-1.19453 0.56078,-2.59852 0.56078,-4.21195 0,-1.67019 -0.19458,-3.11066 -0.58376,-4.32006 -0.38781,-1.2094 -0.91482,-2.20935 -1.57694,-3.00256 -0.66213,-0.79185 -1.43372,-1.37561 -2.3107,-1.74856 -0.87834,-0.37431 -1.82153,-0.56213 -2.82959,-0.56213 -1.00806,0 -1.94315,0.20134 -2.80797,0.60537 -0.86348,0.40404 -1.61209,1.0013 -2.24584,1.79316 -0.63375,0.79185 -1.13778,1.79315 -1.51209,3.00255 -0.3743,1.20805 -0.56213,2.61879 -0.56213,4.23223 z"
   id="path1255"
   style="stroke-width:1.35129" /><path
   fill="#4b5564"
   d="m 298.91412,145.77326 h 5.91863 v 16.28434 c 0,2.24719 0.45268,3.95251 1.36075,5.12002 0.90671,1.16616 2.31069,1.74856 4.2106,1.74856 1.87288,0 3.22552,-0.59051 4.06196,-1.77153 0.83375,-1.18102 1.25265,-2.70662 1.25265,-4.57951 v -16.80323 h 5.91727 v 16.37082 c 0,3.80117 -0.94319,6.63887 -2.82959,8.5104 -1.88639,1.87153 -4.68626,2.80797 -8.40229,2.80797 -3.57145,0 -6.37807,-0.93509 -8.42256,-2.80797 -2.04449,-1.87153 -3.06742,-4.78085 -3.06742,-8.7266 z"
   id="path1257"
   style="stroke-width:1.35129" /><path
   fill="#4b5564"
   d="m 336.36499,145.29761 c 1.75667,0 3.312,0.17297 4.66599,0.51754 1.35264,0.34593 2.56204,0.79186 3.6282,1.33913 l -1.33777,4.40654 c -1.18103,-0.57565 -2.31881,-1.01482 -3.412,-1.3175 -1.09589,-0.30269 -2.1607,-0.45404 -3.19714,-0.45404 -1.38101,0 -2.45393,0.27431 -3.21741,0.82023 -0.76347,0.54727 -1.14589,1.28237 -1.14589,2.2026 0,0.9513 0.33107,1.67019 0.9932,2.1607 0.66213,0.49052 1.72694,0.96482 3.19579,1.42561 l 2.59176,0.82023 c 2.16071,0.72023 3.85252,1.74316 5.07678,3.06742 1.22291,1.32426 1.83505,2.95256 1.83505,4.88084 0,1.15265 -0.21621,2.23232 -0.64727,3.23903 -0.43106,1.00941 -1.07968,1.88639 -1.94315,2.63501 -0.86347,0.74861 -1.94315,1.33912 -3.23903,1.77153 -1.29588,0.43241 -2.80797,0.64727 -4.53491,0.64727 -3.25525,0 -6.23483,-0.66213 -8.94146,-1.98639 l 1.33778,-4.40654 c 1.23912,0.60402 2.44852,1.07292 3.62955,1.40398 1.18102,0.33107 2.4188,0.49592 3.71468,0.49592 1.52695,0 2.67825,-0.28106 3.45659,-0.84185 0.77834,-0.56078 1.16616,-1.34588 1.16616,-2.35394 0,-0.34593 -0.0649,-0.68375 -0.19459,-1.01481 -0.13107,-0.33107 -0.36755,-0.64727 -0.71348,-0.94995 -0.34457,-0.30269 -0.81347,-0.60538 -1.40263,-0.90672 -0.59186,-0.30268 -1.3621,-0.59727 -2.31205,-0.88509 l -2.28908,-0.77699 c -1.00806,-0.34593 -1.92963,-0.74861 -2.76473,-1.21075 -0.83509,-0.45944 -1.54857,-0.99319 -2.13773,-1.59857 -0.59051,-0.60402 -1.0513,-1.3175 -1.38101,-2.13908 -0.33242,-0.82023 -0.49728,-1.77694 -0.49728,-2.87149 0,-1.18102 0.21621,-2.26745 0.64727,-3.262 0.43106,-0.99454 1.07292,-1.84991 1.92288,-2.57014 0.84861,-0.72024 1.89991,-1.28102 3.15255,-1.68505 1.24994,-0.39999 2.68095,-0.60268 4.29438,-0.60268 z"
   id="path1259"
   style="stroke-width:1.35129" /><g
   id="g1305"
   transform="matrix(1.3512852,0,0,1.3512852,-1272.9985,-1144.2658)">
		<path
   fill="#4b5564"
   d="m 1003.931,1031.264 h 3.607 l 7.068,18.631 h -3.815 l -1.656,-4.584 h -6.949 l -1.656,4.584 h -3.756 z m -0.888,11.355 h 5.176 l -0.977,-2.75 c -0.276,-0.828 -0.537,-1.606 -0.783,-2.336 -0.247,-0.729 -0.498,-1.528 -0.755,-2.396 h -0.059 c -0.276,0.809 -0.543,1.592 -0.799,2.351 -0.256,0.76 -0.532,1.553 -0.828,2.381 z"
   id="path1283" />
		<path
   fill="#4b5564"
   d="m 1017.534,1031.264 2.396,9.404 c 0.06,0.256 0.138,0.611 0.236,1.064 0.099,0.454 0.197,0.932 0.296,1.435 0.099,0.502 0.192,1.005 0.281,1.508 0.089,0.503 0.152,0.932 0.192,1.286 h 0.059 c 0.06,-0.374 0.133,-0.808 0.222,-1.301 0.089,-0.493 0.188,-0.991 0.296,-1.493 0.108,-0.503 0.212,-0.977 0.311,-1.42 0.099,-0.443 0.178,-0.803 0.236,-1.079 l 2.544,-9.404 h 3.638 l 2.543,9.374 c 0.06,0.257 0.143,0.611 0.251,1.065 0.108,0.453 0.212,0.937 0.311,1.448 0.099,0.514 0.197,1.021 0.296,1.523 0.099,0.502 0.178,0.932 0.236,1.286 h 0.06 c 0.06,-0.354 0.138,-0.778 0.236,-1.271 0.099,-0.492 0.197,-0.99 0.296,-1.493 0.099,-0.503 0.197,-0.98 0.296,-1.435 0.099,-0.453 0.178,-0.828 0.236,-1.124 l 2.307,-9.374 h 3.638 l -4.998,18.631 h -3.845 l -2.572,-9.789 c -0.218,-0.808 -0.414,-1.592 -0.592,-2.351 -0.178,-0.759 -0.365,-1.572 -0.562,-2.44 h -0.06 c -0.178,0.888 -0.345,1.696 -0.503,2.426 -0.157,0.729 -0.345,1.508 -0.562,2.336 l -2.484,9.818 h -3.814 l -5.116,-18.631 h 3.695 z"
   id="path1285" />
		<path
   fill="#4b5564"
   d="m 1045.156,1031.264 h 3.607 l 7.068,18.631 h -3.815 l -1.656,-4.584 h -6.949 l -1.656,4.584 h -3.756 z m -0.887,11.355 h 5.176 l -0.977,-2.75 c -0.276,-0.828 -0.537,-1.606 -0.783,-2.336 -0.247,-0.729 -0.498,-1.528 -0.755,-2.396 h -0.059 c -0.276,0.809 -0.543,1.592 -0.799,2.351 -0.256,0.76 -0.532,1.553 -0.828,2.381 z"
   id="path1287" />
		<path
   fill="#4b5564"
   d="m 1061.834,1031.264 v 18.631 h -3.607 v -18.631 z"
   id="path1289" />
		<path
   fill="#4b5564"
   d="m 1078.662,1031.264 v 2.897 h -5.472 v 15.733 h -3.607 v -15.733 h -5.323 v -2.897 z"
   id="path1291" />
		<path
   fill="#4b5564"
   d="m 1099.363,1031.264 v 2.839 h -7.926 v 5.293 h 7.275 v 2.81 h -7.275 v 7.689 h -3.607 v -18.631 z"
   id="path1293" />
		<path
   fill="#4b5564"
   d="m 1110.482,1030.968 c 1.302,0 2.504,0.212 3.608,0.636 1.104,0.424 2.056,1.045 2.854,1.863 0.799,0.818 1.425,1.823 1.878,3.017 0.453,1.192 0.681,2.567 0.681,4.125 0,1.519 -0.232,2.869 -0.695,4.052 -0.464,1.183 -1.104,2.184 -1.922,3.002 -0.818,0.818 -1.785,1.444 -2.898,1.878 -1.114,0.433 -2.321,0.65 -3.623,0.65 -1.301,0 -2.504,-0.207 -3.607,-0.621 -1.104,-0.414 -2.056,-1.025 -2.854,-1.834 -0.798,-0.808 -1.424,-1.809 -1.878,-3.001 -0.453,-1.193 -0.68,-2.568 -0.68,-4.126 0,-1.518 0.231,-2.873 0.695,-4.066 0.463,-1.192 1.104,-2.203 1.922,-3.031 0.817,-0.828 1.784,-1.459 2.898,-1.893 1.113,-0.434 2.321,-0.651 3.621,-0.651 z m -5.293,9.64 c 0,1.164 0.138,2.169 0.414,3.017 0.275,0.848 0.655,1.553 1.139,2.114 0.482,0.563 1.044,0.981 1.686,1.257 0.641,0.276 1.325,0.414 2.055,0.414 0.73,0 1.41,-0.138 2.041,-0.414 0.631,-0.275 1.178,-0.694 1.642,-1.257 0.463,-0.562 0.828,-1.267 1.094,-2.114 0.267,-0.848 0.399,-1.853 0.399,-3.017 0,-1.183 -0.139,-2.208 -0.414,-3.075 -0.276,-0.868 -0.655,-1.583 -1.139,-2.145 -0.484,-0.562 -1.045,-0.976 -1.686,-1.242 -0.641,-0.266 -1.326,-0.399 -2.056,-0.399 -0.73,0 -1.409,0.144 -2.04,0.43 -0.632,0.285 -1.179,0.709 -1.642,1.271 -0.464,0.562 -0.828,1.276 -1.094,2.144 -0.266,0.868 -0.399,1.873 -0.399,3.016 z"
   id="path1295" />
		<path
   fill="#4b5564"
   d="m 1122.904,1031.264 h 6.713 c 1.024,0 1.922,0.147 2.691,0.443 0.769,0.296 1.414,0.7 1.937,1.212 0.522,0.514 0.917,1.114 1.184,1.805 0.266,0.69 0.398,1.439 0.398,2.247 0,0.75 -0.113,1.41 -0.34,1.981 -0.227,0.572 -0.518,1.075 -0.872,1.509 -0.355,0.434 -0.75,0.794 -1.184,1.079 -0.434,0.286 -0.857,0.518 -1.271,0.695 l 4.702,7.659 h -4.11 l -3.874,-7.009 h -2.455 v 7.009 h -3.519 z m 3.519,8.812 h 1.805 c 1.123,0 2.05,-0.231 2.779,-0.695 0.729,-0.463 1.095,-1.236 1.095,-2.321 0,-0.985 -0.291,-1.734 -0.873,-2.247 -0.581,-0.513 -1.434,-0.77 -2.558,-0.77 h -2.248 z"
   id="path1297" />
		<path
   fill="#4b5564"
   d="m 1148.336,1031.264 4.199,7.6 4.229,-7.6 h 3.903 l -6.447,10.912 v 7.719 h -3.607 v -7.719 l -6.299,-10.912 z"
   id="path1299" />
		<path
   fill="#4b5564"
   d="m 1170.279,1030.968 c 1.302,0 2.504,0.212 3.608,0.636 1.104,0.424 2.056,1.045 2.854,1.863 0.799,0.818 1.425,1.823 1.878,3.017 0.453,1.192 0.681,2.567 0.681,4.125 0,1.519 -0.232,2.869 -0.695,4.052 -0.464,1.183 -1.104,2.184 -1.922,3.002 -0.818,0.818 -1.785,1.444 -2.898,1.878 -1.114,0.433 -2.321,0.65 -3.623,0.65 -1.301,0 -2.504,-0.207 -3.607,-0.621 -1.104,-0.414 -2.056,-1.025 -2.854,-1.834 -0.798,-0.808 -1.424,-1.809 -1.878,-3.001 -0.453,-1.193 -0.68,-2.568 -0.68,-4.126 0,-1.518 0.231,-2.873 0.695,-4.066 0.463,-1.192 1.104,-2.203 1.922,-3.031 0.817,-0.828 1.784,-1.459 2.898,-1.893 1.113,-0.434 2.321,-0.651 3.621,-0.651 z m -5.293,9.64 c 0,1.164 0.138,2.169 0.414,3.017 0.275,0.848 0.655,1.553 1.139,2.114 0.482,0.563 1.044,0.981 1.686,1.257 0.641,0.276 1.325,0.414 2.055,0.414 0.73,0 1.41,-0.138 2.041,-0.414 0.631,-0.275 1.178,-0.694 1.642,-1.257 0.463,-0.562 0.828,-1.267 1.094,-2.114 0.267,-0.848 0.399,-1.853 0.399,-3.017 0,-1.183 -0.139,-2.208 -0.414,-3.075 -0.276,-0.868 -0.655,-1.583 -1.139,-2.145 -0.484,-0.562 -1.045,-0.976 -1.686,-1.242 -0.641,-0.266 -1.326,-0.399 -2.056,-0.399 -0.73,0 -1.409,0.144 -2.04,0.43 -0.632,0.285 -1.179,0.709 -1.642,1.271 -0.464,0.562 -0.828,1.276 -1.094,2.144 -0.266,0.868 -0.399,1.873 -0.399,3.016 z"
   id="path1301" />
		<path
   fill="#4b5564"
   d="m 1182.583,1031.264 h 3.607 v 11.148 c 0,1.716 0.32,2.973 0.961,3.771 0.641,0.799 1.671,1.198 3.091,1.198 1.399,0 2.415,-0.429 3.046,-1.286 0.631,-0.858 0.946,-1.967 0.946,-3.327 v -11.504 h 3.608 v 11.267 c 0,2.584 -0.651,4.506 -1.952,5.768 -1.302,1.262 -3.185,1.893 -5.648,1.893 -1.203,0 -2.277,-0.153 -3.224,-0.459 -0.946,-0.305 -1.75,-0.778 -2.41,-1.419 -0.661,-0.641 -1.164,-1.454 -1.509,-2.44 -0.345,-0.985 -0.517,-2.148 -0.517,-3.489 v -11.121 z"
   id="path1303" />
	</g><g
   id="g1327"
   transform="matrix(1.3512852,0,0,1.3512852,-1272.9985,-1146.6792)">
		<path
   fill="#4b5564"
   d="m 999.016,1061.699 h 9.278 c 1.336,0 2.518,0.191 3.544,0.575 1.026,0.384 1.88,0.909 2.562,1.577 0.68,0.668 1.193,1.447 1.54,2.338 0.346,0.891 0.52,1.844 0.52,2.858 0,0.965 -0.143,1.813 -0.427,2.542 -0.285,0.729 -0.649,1.367 -1.095,1.911 -0.445,0.545 -0.928,0.99 -1.448,1.336 -0.52,0.347 -1.002,0.619 -1.447,0.816 l 5.604,9.427 h -6.495 l -4.156,-8.425 h -2.338 v 8.425 h -5.642 z m 5.641,10.689 h 1.707 c 1.286,0 2.325,-0.26 3.117,-0.779 0.792,-0.519 1.188,-1.36 1.188,-2.523 0,-0.965 -0.321,-1.731 -0.965,-2.302 -0.644,-0.568 -1.571,-0.854 -2.783,-0.854 h -2.264 z"
   id="path1307" />
		<path
   fill="#4b5564"
   d="m 1026.294,1061.699 v 23.381 h -5.642 v -23.381 z"
   id="path1309" />
		<path
   fill="#4b5564"
   d="m 1042.733,1061.254 c 1.484,0 2.802,0.124 3.953,0.371 1.15,0.247 2.171,0.582 3.062,1.002 l -1.15,3.711 c -0.842,-0.42 -1.726,-0.724 -2.653,-0.909 -0.929,-0.186 -1.825,-0.278 -2.691,-0.278 -0.989,0 -1.917,0.161 -2.783,0.482 -0.866,0.322 -1.627,0.823 -2.282,1.503 -0.656,0.682 -1.169,1.541 -1.54,2.58 -0.371,1.039 -0.557,2.276 -0.557,3.711 0,2.623 0.575,4.633 1.726,6.031 1.15,1.397 2.802,2.097 4.954,2.097 0.52,0 0.989,-0.024 1.41,-0.074 0.421,-0.05 0.742,-0.124 0.965,-0.223 v -5.085 h -3.674 v -4.156 h 9.093 v 12.024 c -0.965,0.421 -2.104,0.768 -3.414,1.039 -1.313,0.271 -2.784,0.408 -4.417,0.408 -1.781,0 -3.433,-0.26 -4.954,-0.779 -1.521,-0.519 -2.853,-1.293 -3.99,-2.319 -1.137,-1.026 -2.028,-2.288 -2.672,-3.786 -0.644,-1.496 -0.965,-3.222 -0.965,-5.177 0,-1.954 0.321,-3.692 0.965,-5.214 0.644,-1.522 1.534,-2.796 2.672,-3.823 1.138,-1.026 2.469,-1.806 3.99,-2.338 1.521,-0.532 3.171,-0.798 4.952,-0.798 z"
   id="path1311" />
		<path
   fill="#4b5564"
   d="m 1054.795,1085.08 v -23.381 h 5.642 v 9.093 h 8.127 v -9.093 h 5.642 v 23.381 h -5.642 v -9.909 h -8.127 v 9.909 z"
   id="path1313" />
		<path
   fill="#4b5564"
   d="m 1095.285,1061.699 v 4.379 h -6.384 v 19.002 h -5.641 v -19.002 h -6.235 v -4.379 z"
   id="path1315" />
		<path
   fill="#4b5564"
   d="m 1106.678,1085.08 v -23.381 h 5.642 v 9.093 h 8.127 v -9.093 h 5.642 v 23.381 h -5.642 v -9.909 h -8.127 v 9.909 z"
   id="path1317" />
		<path
   fill="#4b5564"
   d="m 1130.986,1061.699 h 15.588 v 4.305 h -9.946 v 4.788 h 8.98 v 4.268 h -8.98 v 5.716 h 10.058 v 4.305 h -15.699 v -23.382 z"
   id="path1319" />
		<path
   fill="#4b5564"
   d="m 1150.396,1061.699 h 9.278 c 1.336,0 2.518,0.191 3.544,0.575 1.026,0.384 1.88,0.909 2.562,1.577 0.68,0.668 1.193,1.447 1.54,2.338 0.346,0.891 0.52,1.844 0.52,2.858 0,0.965 -0.143,1.813 -0.427,2.542 -0.285,0.729 -0.649,1.367 -1.095,1.911 -0.445,0.545 -0.928,0.99 -1.448,1.336 -0.52,0.347 -1.002,0.619 -1.447,0.816 l 5.604,9.427 h -6.495 l -4.156,-8.425 h -2.338 v 8.425 h -5.642 z m 5.641,10.689 h 1.707 c 1.286,0 2.325,-0.26 3.117,-0.779 0.792,-0.519 1.188,-1.36 1.188,-2.523 0,-0.965 -0.321,-1.731 -0.965,-2.302 -0.644,-0.568 -1.571,-0.854 -2.783,-0.854 h -2.264 z"
   id="path1321" />
		<path
   fill="#4b5564"
   d="m 1172.032,1061.699 h 15.588 v 4.305 h -9.946 v 4.788 h 8.98 v 4.268 h -8.98 v 5.716 h 10.058 v 4.305 h -15.699 v -23.382 z"
   id="path1323" />
		<path
   fill="#4b5564"
   d="m 1190.959,1082.445 c 0,-0.421 0.08,-0.816 0.241,-1.188 0.161,-0.372 0.384,-0.692 0.668,-0.965 0.284,-0.273 0.606,-0.482 0.965,-0.631 0.359,-0.149 0.736,-0.223 1.132,-0.223 0.396,0 0.773,0.074 1.133,0.223 0.358,0.148 0.674,0.358 0.946,0.631 0.271,0.272 0.488,0.594 0.649,0.965 0.16,0.371 0.241,0.767 0.241,1.188 0,0.915 -0.297,1.651 -0.891,2.208 -0.594,0.557 -1.287,0.835 -2.079,0.835 -0.792,0 -1.49,-0.278 -2.097,-0.835 -0.607,-0.557 -0.908,-1.293 -0.908,-2.208 z m 0.148,-23.715 h 5.716 l -0.742,17.851 h -4.306 z"
   id="path1325" />
	</g><g
   aria-label="INNUMEROUS"
   id="text2862"
   style="font-size:119.898px;line-height:1.25;fill:#4b5564;stroke-width:2.99745"
   transform="matrix(0.40224161,0,0,0.40224161,-230.88417,-192.71727)"><path
     d="m 769.17494,731.64236 v 75.53574 h -8.63266 v -75.53574 z"
     style="font-weight:300;font-family:Mukta;-inkscape-font-specification:'Mukta Light'"
     id="path1238" /><path
     d="m 788.2386,731.64236 h 7.79337 l 33.69134,48.79849 q 2.27806,3.35714 4.43622,6.71428 2.27806,3.35715 4.31633,6.71429 h 0.2398 q -0.2398,-4.43622 -0.3597,-8.75255 0,-4.43623 0,-8.87245 v -44.60206 h 8.39286 v 75.53574 h -7.79337 L 805.9835,759.81839 q -2.51786,-3.59694 -5.03571,-7.67347 -2.39796,-4.19643 -4.55613,-8.27296 h -0.23979 q 0.23979,5.39541 0.35969,10.67092 0.1199,5.15561 0.1199,10.55102 v 42.0842 h -8.39286 z"
     style="font-weight:300;font-family:Mukta;-inkscape-font-specification:'Mukta Light'"
     id="path1240" /><path
     d="m 865.81253,731.64236 h 7.79337 l 33.69134,48.79849 q 2.27806,3.35714 4.43622,6.71428 2.27807,3.35715 4.31633,6.71429 h 0.2398 q -0.2398,-4.43622 -0.3597,-8.75255 0,-4.43623 0,-8.87245 v -44.60206 h 8.39286 v 75.53574 h -7.79337 l -32.97195,-47.35971 q -2.51786,-3.59694 -5.03571,-7.67347 -2.39796,-4.19643 -4.55613,-8.27296 h -0.23979 q 0.23979,5.39541 0.35969,10.67092 0.1199,5.15561 0.1199,10.55102 v 42.0842 h -8.39286 z"
     style="font-weight:300;font-family:Mukta;-inkscape-font-specification:'Mukta Light'"
     id="path1242" /><path
     d="m 942.78697,731.64236 h 8.63265 v 45.20155 q 0,13.18878 4.79592,18.82398 4.91582,5.51531 15.46685,5.51531 5.15561,0 8.87245,-1.67857 3.71684,-1.67857 5.9949,-4.67602 2.39796,-2.99745 3.47704,-7.19388 1.19898,-4.19643 1.19898,-9.35205 v -46.64032 h 8.63266 v 46.28063 q 0,15.58674 -7.43368,23.02041 -7.31378,7.31378 -20.74235,7.31378 -13.54848,0 -21.22195,-7.31378 -7.67347,-7.43367 -7.67347,-23.6199 z"
     style="font-weight:300;font-family:Mukta;-inkscape-font-specification:'Mukta Light'"
     id="path1244" /><path
     d="m 1023.5982,731.64236 h 11.2704 l 17.5051,51.91583 q 0.9592,2.75766 2.0382,6.2347 1.199,3.47704 2.1582,6.71429 h 0.2398 q 0.9592,-3.11735 2.0383,-6.47449 1.0791,-3.47705 2.0382,-6.4745 l 17.1455,-51.91583 h 11.3903 l 7.1938,75.53574 h -8.6326 l -3.7168,-41.60461 q -0.5995,-6.35459 -1.0791,-12.46939 -0.3597,-6.23469 -0.5995,-12.58929 h -0.2398 q -1.6786,5.75511 -3.7169,12.3495 -1.9183,6.47449 -3.9566,12.70918 l -14.2679,41.60461 h -7.7933 l -14.2679,-41.7245 q -2.1581,-6.3546 -4.0765,-12.3495 -1.9184,-6.1148 -3.597,-12.58929 h -0.2398 q -0.3596,5.75511 -0.8392,12.2296 -0.4796,6.47449 -1.0791,12.82908 l -3.597,41.60461 h -8.3928 z"
     style="font-weight:300;font-family:Mukta;-inkscape-font-specification:'Mukta Light'"
     id="path1246" /><path
     d="m 1113.8813,731.64236 h 44.3623 v 7.07398 h -35.7296 v 25.89797 h 32.6122 v 7.07398 h -32.6122 v 28.41583 h 36.0893 v 7.07398 h -44.722 z"
     style="font-weight:300;font-family:Mukta;-inkscape-font-specification:'Mukta Light'"
     id="path1248" /><path
     d="m 1173.1109,731.64236 h 23.2602 q 5.875,0 10.3112,1.67857 4.5561,1.55868 7.5536,4.43623 2.9974,2.87755 4.5561,6.95408 1.5587,3.95664 1.5587,8.75256 0,4.31632 -1.3189,7.91326 -1.3189,3.47705 -3.597,6.1148 -2.1581,2.63776 -5.0357,4.43623 -2.8775,1.79847 -5.9949,2.87755 l 20.5026,32.37246 h -9.8316 l -18.7041,-30.81379 h -15.2271 v 30.81379 h -8.0331 z m 8.0331,37.76787 h 11.5102 q 3.9567,0 7.3138,-0.83929 3.477,-0.95918 5.9949,-2.87755 2.5179,-1.91837 3.9566,-4.79592 1.4388,-2.99745 1.4388,-7.07398 0,-7.91327 -4.5561,-11.51021 -4.4362,-3.71684 -13.1888,-3.71684 h -12.4694 z"
     style="font-weight:300;font-family:Mukta;-inkscape-font-specification:'Mukta Light'"
     id="path1250" /><path
     d="m 1266.991,730.68317 q 7.1938,0 13.4285,2.39796 6.3546,2.39797 10.9108,7.31378 4.5561,4.79592 7.1938,12.1097 2.6378,7.19388 2.6378,16.90562 0,9.47194 -2.7577,16.78572 -2.6377,7.19388 -7.3137,12.1097 -4.6761,4.91582 -11.0307,7.43367 -6.3545,2.51786 -13.5484,2.51786 -7.1939,0 -13.5485,-2.39796 -6.2347,-2.51786 -10.7908,-7.31378 -4.5561,-4.91581 -7.1939,-12.10969 -2.6378,-7.31378 -2.6378,-17.02552 0,-9.47194 2.6378,-16.66582 2.7577,-7.19388 7.4337,-12.1097 4.676,-4.91582 10.9107,-7.43368 6.3546,-2.51786 13.6684,-2.51786 z m -25.4184,38.72706 q 0,8.15306 2.0383,14.14796 2.0382,5.9949 5.5153,9.95154 3.477,3.95663 8.0331,5.875 4.6761,1.91837 9.8317,1.91837 5.1556,0 9.5918,-1.91837 4.5561,-1.91837 7.9133,-5.875 3.477,-3.95664 5.3954,-9.95154 2.0382,-5.9949 2.0382,-14.14796 0,-8.27296 -2.0382,-14.26786 -2.0383,-6.1148 -5.5153,-9.95154 -3.4771,-3.83673 -8.1531,-5.6352 -4.5561,-1.91837 -9.7117,-1.91837 -5.1556,0 -9.7118,1.91837 -4.4362,1.91837 -7.9132,5.875 -3.3572,3.95663 -5.3954,9.95153 -1.9184,5.9949 -1.9184,14.02807 z"
     style="font-weight:300;font-family:Mukta;-inkscape-font-specification:'Mukta Light'"
     id="path1252" /><path
     d="m 1315.6694,731.64236 h 8.6326 v 45.20155 q 0,13.18878 4.7959,18.82398 4.9158,5.51531 15.4669,5.51531 5.1556,0 8.8724,-1.67857 3.7169,-1.67857 5.9949,-4.67602 2.398,-2.99745 3.4771,-7.19388 1.1989,-4.19643 1.1989,-9.35205 v -46.64032 h 8.6327 v 46.28063 q 0,15.58674 -7.4337,23.02041 -7.3138,7.31378 -20.7423,7.31378 -13.5485,0 -21.222,-7.31378 -7.6734,-7.43367 -7.6734,-23.6199 z"
     style="font-weight:300;font-family:Mukta;-inkscape-font-specification:'Mukta Light'"
     id="path1254" /><path
     d="m 1411.8275,730.68317 q 5.3954,0 10.3112,0.95919 5.0357,0.95918 9.9516,3.23725 l -2.1582,7.07398 q -5.1556,-2.39796 -9.3521,-3.35715 -4.0765,-0.95918 -8.3928,-0.95918 -7.3138,0 -11.75,3.35714 -4.4362,3.23725 -4.4362,9.23215 0,5.27551 3.3571,8.39286 3.3571,2.99745 10.4311,5.27551 l 8.0332,2.63776 q 9.2321,3.11735 13.4286,8.51276 4.3163,5.27551 4.3163,12.10969 0,4.91582 -1.9184,8.87246 -1.7984,3.83673 -5.1556,6.59439 -3.3571,2.63775 -8.0332,4.19643 -4.676,1.43877 -10.3112,1.43877 -5.7551,0 -11.5102,-1.07908 -5.6352,-1.07908 -11.3903,-3.71684 l 2.2781,-7.07398 q 5.0357,2.51786 9.8316,3.71684 4.9158,1.07908 10.3112,1.07908 7.3138,0 12.1097,-3.23725 4.9158,-3.23724 4.9158,-9.95153 0,-2.39796 -0.7193,-4.43623 -0.5995,-2.15816 -2.2781,-3.95663 -1.6786,-1.79847 -4.5561,-3.35714 -2.8776,-1.67858 -7.3138,-3.11735 l -7.7934,-2.51786 q -7.5536,-2.39796 -12.2296,-6.95408 -4.676,-4.67603 -4.676,-12.3495 0,-9.47194 6.3546,-14.98725 6.3546,-5.63521 18.3444,-5.63521 z"
     style="font-weight:300;font-family:Mukta;-inkscape-font-specification:'Mukta Light'"
     id="path1256" /></g></svg>
